<?xml version="1.0" encoding="UTF-8" standalone="no"?>
<!DOCTYPE svg PUBLIC "-//W3C//DTD SVG 1.1//EN" "http://www.w3.org/Graphics/SVG/1.1/DTD/svg11.dtd">
<svg width="100%" height="100%" viewBox="0 0 1048 726" version="1.1" xmlns="http://www.w3.org/2000/svg" xmlns:xlink="http://www.w3.org/1999/xlink" xml:space="preserve" xmlns:serif="http://www.serif.com/" style="fill-rule:evenodd;clip-rule:evenodd;stroke-linejoin:round;stroke-miterlimit:2;">
    <g transform="matrix(1,0,0,1,-192.796442,-352.348418)">
        <g transform="matrix(1.06391,0,0,0.922392,-1182.838896,76.553253)">
            <path d="M1559,818.654L1559,931.594C1559,1016.261 1499.405,1085 1426,1085C1352.595,1085 1293,1016.261 1293,931.594L1293,452.406C1293,367.739 1352.595,299 1426,299C1445.6,299 1464.215,303.901 1480.975,312.697C1433.205,291.027 1376.723,302.447 1338.135,346.955C1286.23,406.823 1286.23,504.035 1338.135,563.903L1559,818.654Z" style="fill:rgb(167,173,135);"/>
        </g>
        <g transform="matrix(0.752298,-0.752298,0.742402,0.742402,-1058.648369,1238.42403)">
            <path d="M1293,927.612C1302.959,863.182 1358.034,813.827 1424.394,813.827L1559,813.827L1559,950.227C1559,1017.472 1510.294,1073.28 1446.711,1083.372L1424.394,1083.372C1388.1,1083.372 1355.181,1068.609 1331.174,1044.69C1307.569,1020.362 1293,987.005 1293,950.227L1293,927.612Z" style="fill:rgb(217,187,55);"/>
        </g>
        <g transform="matrix(1.06391,0,0,0.922392,-418.477859,76.553253)">
            <path d="M1559,452.406L1559,931.594C1559,1016.261 1499.405,1085 1426,1085C1352.595,1085 1293,1016.261 1293,931.594L1293,822.759L1520.071,560.85C1546.017,530.923 1558.993,491.665 1559,452.406Z" style="fill:rgb(121,132,74);"/>
        </g>
        <g transform="matrix(1.06391,0,0,0.922392,-418.477859,76.553253)">
            <path d="M1556.85,424.813C1557.93,431.658 1558.616,438.662 1558.878,445.79C1558.618,438.763 1557.943,431.753 1556.85,424.813Z" style="fill:rgb(235,235,235);fill-opacity:0.59;"/>
        </g>
        <g transform="matrix(1.06391,0,0,0.922392,-418.477859,76.553253)">
            <path d="M1431.736,299.14C1437.916,299.443 1443.987,300.234 1449.922,301.479C1443.905,300.22 1437.828,299.44 1431.736,299.14Z" style="fill:rgb(235,235,235);"/>
        </g>
        <g transform="matrix(1.06391,0,0,0.922392,-418.477859,76.553253)">
            <path d="M1386.048,306.053C1398.661,301.471 1412.082,299 1426,299C1412.515,299.003 1399.03,301.354 1386.048,306.053Z" style="fill:rgb(235,235,235);"/>
        </g>
        <g transform="matrix(0.752298,0.752298,-0.738201,0.738201,346.686298,-899.733772)">
            <path d="M1559,761.799L1331.955,530.418C1289.891,487.552 1281.916,423.016 1308.028,371.933C1314.327,359.642 1322.421,348.456 1331.955,338.736C1333.314,337.352 1334.695,336.003 1336.096,334.691C1340.588,330.488 1345.364,326.595 1350.39,323.047C1395.724,291.07 1456.276,291.07 1501.61,323.047C1506.636,326.595 1511.412,330.488 1515.904,334.691C1517.305,336.003 1518.686,337.352 1520.045,338.736C1544.109,363.269 1559,397.146 1559,434.54L1559,761.799Z" style="fill:rgb(208,178,46);"/>
        </g>
        <g transform="matrix(0.752298,0.752298,-0.738201,0.738201,346.686298,-899.733772)">
            <path d="M1515.904,334.691C1517.312,336.009 1518.693,337.358 1520.045,338.736C1518.686,337.352 1517.305,336.003 1515.904,334.691Z" style="fill:rgb(235,235,235);fill-opacity:0.59;"/>
        </g>
        <path d="M619.515,970.991C619.643,971.119 475.796,831.673 475.796,831.673L475.796,493.848C475.796,436.605 441.731,387.255 392.785,364.982C410.324,371.88 426.759,382.413 440.928,396.582L718.37,674.024L618.515,773.88C563.293,829.102 564.293,915.769 619.515,970.991Z" style="fill:rgb(152,159,115);"/>
        <g transform="matrix(0.752298,0.752298,-0.738201,0.738201,346.686298,-899.733772)">
            <path d="M1236.556,1085.271L924.206,1085.271C850.802,1085.271 791.206,1024.538 791.206,949.731C791.206,894.118 824.144,846.282 871.207,825.397C918.542,807.33 973.982,817.683 1012.028,856.455L1236.556,1085.271Z" style="fill:rgb(124,135,77);"/>
        </g>
        <g transform="matrix(0.752298,0.752298,-0.738201,0.738201,346.686298,-899.733772)">
            <path d="M1350.39,323.047C1371.865,307.886 1397.922,299 1426,299C1454.078,299 1480.135,307.886 1501.61,323.047C1456.276,291.07 1395.724,291.07 1350.39,323.047Z" style="fill:rgb(235,235,235);"/>
        </g>
        <g transform="matrix(0.752298,0.752298,-0.738201,0.738201,346.686298,-899.733772)">
            <path d="M1293,814.191L1293,434.54C1293,411.961 1298.429,390.664 1308.028,371.933C1281.916,423.016 1289.891,487.552 1331.955,530.418L1559,761.799L1556.341,922.894C1542.605,862.956 1492.453,814.191 1429.478,814.191L1293,814.191Z" style="fill:rgb(254,222,79);"/>
        </g>
        <g transform="matrix(0.752298,0.752298,-0.738201,0.738201,346.686298,-899.733772)">
            <path d="M1331.955,338.736C1333.307,337.358 1334.688,336.009 1336.096,334.691C1334.695,336.003 1333.314,337.352 1331.955,338.736Z" style="fill:rgb(235,235,235);"/>
        </g>
    </g>
</svg>
