<?xml version="1.0" encoding="UTF-8" standalone="no"?><!DOCTYPE svg PUBLIC "-//W3C//DTD SVG 1.1//EN" "http://www.w3.org/Graphics/SVG/1.1/DTD/svg11.dtd"><svg width="100%" height="100%" viewBox="0 0 1659 726" version="1.1" xmlns="http://www.w3.org/2000/svg" xmlns:xlink="http://www.w3.org/1999/xlink" xml:space="preserve" xmlns:serif="http://www.serif.com/" style="fill-rule:evenodd;clip-rule:evenodd;stroke-linecap:round;stroke-miterlimit:1.5;"><g><path d="M283,480.226l0,104.175c0,78.096 -63.404,141.5 -141.5,141.5c-78.096,0 -141.5,-63.404 -141.5,-141.5l0,-442c0,-78.096 63.404,-141.5 141.5,-141.5c20.853,-0 40.658,4.52 58.488,12.634c-50.823,-19.988 -110.914,-9.455 -151.968,31.599c-55.222,55.222 -55.222,144.889 -0,200.111l234.98,234.98Z" style="fill:#a7ad87;"/><path d="M409.937,602.917c-40.341,-55.326 -35.55,-133.399 14.373,-183.322l101.264,-101.264l101.264,101.264c49.923,49.923 54.714,127.996 14.373,183.322l-16.789,16.789c-27.304,27.304 -63.029,41.108 -98.847,41.412c-35.818,-0.304 -71.543,-14.107 -98.847,-41.412l-16.789,-16.789Z" style="fill:#d9bb37;"/><path d="M1047.361,142.401l0,442c0,78.096 -63.404,141.5 -141.5,141.5c-78.096,0 -141.5,-63.404 -141.5,-141.5l0,-100.389l241.583,-241.583c27.604,-27.604 41.41,-63.815 41.417,-100.028Z" style="fill:#79844a;"/><path d="M863.356,7.407c13.419,-4.227 27.698,-6.506 42.505,-6.506c-14.347,0.003 -28.694,2.171 -42.505,6.506Z" style="fill:#ebebeb;"/><path d="M764.361,484.013l-0,-341.611c0,-63.289 41.64,-116.928 98.995,-134.994c13.811,-4.335 28.158,-6.503 42.505,-6.506c2.044,-0 4.079,0.043 6.102,0.129c6.482,0.276 12.948,0.996 19.349,2.157c57.71,10.499 103.263,56.052 113.762,113.762c1.162,6.401 1.881,12.867 2.157,19.349c0.086,2.023 0.129,4.058 0.129,6.102c-0.007,36.213 -13.813,72.424 -41.417,100.028l-241.583,241.583Z" style="fill:#d0b22e;"/><path d="M426.718,619.544c0.128,0.128 -143.718,-139.318 -143.718,-139.318l0,-337.825c0,-57.243 -34.065,-106.593 -83.012,-128.866c17.539,6.898 33.975,17.431 48.143,31.599l277.443,277.443l-99.856,99.856c-55.222,55.222 -54.222,141.889 1,197.111Z" style="fill:#989f73;"/><path d="M283,480.226l-234.98,-234.98c-55.222,-55.222 -55.222,-144.889 0,-200.111c41.054,-41.054 101.145,-51.587 151.968,-31.599c48.947,22.273 83.012,71.623 83.012,128.866l-0,337.825Z" style="fill:#7c874d;"/><path d="M931.312,3.188c27.347,4.964 53.509,18.007 74.632,39.13c21.123,21.123 34.166,47.286 39.13,74.632c-10.499,-57.71 -56.052,-103.263 -113.762,-113.762Z" style="fill:#ebebeb;"/><path d="M525.574,322.577l280.259,-280.259c16.668,-16.668 36.473,-28.304 57.522,-34.911c-57.355,18.065 -98.995,71.705 -98.995,134.994l0,341.611l-120.921,116.921c33.913,-54.58 32.182,-128.308 -15.194,-175.684l-102.672,-102.672Z" style="fill:#fede4f;"/></g><path d="M1045.074,116.883l305.852,0" style="fill:none;"/><path d="M1047.361,142.401l0,442c0,78.096 -63.404,141.5 -141.5,141.5c-78.096,0 -141.5,-63.404 -141.5,-141.5l0,-100.389l241.583,-241.583c27.604,-27.604 41.41,-63.815 41.417,-100.028Z" style="fill:#79844a;"/><path d="M764.361,484.013l-0,-341.611c0,-63.289 41.64,-116.928 98.995,-134.994c13.811,-4.335 28.158,-6.503 42.505,-6.506c2.044,-0 4.079,0.043 6.102,0.129c6.482,0.276 12.948,0.996 19.349,2.157c57.71,10.499 103.263,56.052 113.762,113.762c1.162,6.401 1.881,12.867 2.157,19.349c0.086,2.023 0.129,4.058 0.129,6.102c-0.007,36.213 -13.813,72.424 -41.417,100.028l-241.583,241.583Z" style="fill:#d0b22e;"/><path d="M931.312,3.188c27.347,4.964 53.509,18.007 74.632,39.13c21.123,21.123 34.166,47.286 39.13,74.632c-10.499,-57.71 -56.052,-103.263 -113.762,-113.762Z" style="fill:#ebebeb;"/><path d="M1333.562,3.188c27.347,4.964 53.509,18.007 74.632,39.13c21.123,21.123 34.166,47.286 39.13,74.632c-10.499,-57.71 -56.052,-103.263 -113.762,-113.762Z" style="fill:#ebebeb;"/><path d="M1656.517,175.629l0,408.772c0,78.096 -63.404,141.5 -141.5,141.5c-78.096,0 -141.5,-63.404 -141.5,-141.5l0,-105.341c0.371,-0.359 0.739,-0.721 1.105,-1.087l256.116,-256.116c1.185,-1.185 2.333,-2.394 3.444,-3.628c3.559,-3.952 6.795,-8.211 9.675,-12.748c5.816,-9.161 10.022,-19.224 12.66,-29.852Z" style="fill:#79844a;"/><path d="M1617.095,44.45c7.78,8.105 14.605,17.133 20.294,26.903c-2.648,-4.349 -5.526,-8.627 -8.633,-12.812c-3.631,-4.891 -7.528,-9.597 -11.66,-14.091Z" style="fill:#79844a;"/><path d="M1372.828,479.75c-45.062,43.671 -124.125,36.288 -177.264,-16.851c-53.572,-53.572 -60.64,-133.492 -15.773,-178.359l253.933,-253.933c36.36,-36.36 95.741,-38.612 145.463,-9.647c11.965,6.984 23.052,15.58 32.896,25.42c1.402,1.402 2.773,2.823 4.112,4.26c0.28,0.301 0.559,0.602 0.837,0.905c-19.422,-20.259 -45.207,-34.363 -74.307,-39.243c-6.239,-1.046 -12.549,-1.657 -18.88,-1.835c-1.976,-0.056 -3.964,-0.069 -5.962,-0.04c-14.022,0.204 -28.074,2.528 -41.634,6.96c-56.31,18.467 -97.765,71.48 -98.66,133.334l-4.761,329.028Z" style="fill:#fede4f;stroke:#fede4f;stroke-width:1px;"/><path d="M1637.389,71.353c12.653,20.777 22.232,91.77 19.128,104.276l-0,-33.228c-0,-2.044 -0.043,-4.079 -0.129,-6.102c-0.276,-6.482 -0.994,-12.948 -2.157,-19.349c-2.971,-16.349 -8.762,-31.721 -16.841,-45.597Z" style="fill:#fede4f;stroke:#fede4f;stroke-width:1px;"/><path d="M1617.095,44.45c-20.177,-21.02 -46.774,-35.837 -76.627,-41.262c-6.401,-1.163 -12.867,-1.881 -19.349,-2.157c-2.023,-0.086 -4.058,-0.13 -6.102,-0.129c-14.347,0.001 -28.694,2.171 -42.505,6.506c-57.355,18.065 -98.995,71.705 -98.995,134.994l0,336.659c0.371,-0.359 0.739,-0.721 1.105,-1.087l256.116,-256.116c1.185,-1.185 2.333,-2.394 3.444,-3.628c3.559,-3.952 6.795,-8.211 9.675,-12.748c5.816,-9.161 10.022,-19.224 12.66,-29.852l-0,-33.228c-0,-2.044 -0.043,-4.079 -0.129,-6.102c-0.276,-6.482 -0.994,-12.948 -2.157,-19.349c-2.971,-16.349 -8.762,-31.721 -16.841,-45.597c-2.648,-4.349 -5.526,-8.627 -8.633,-12.812c-3.631,-4.891 -7.528,-9.597 -11.66,-14.091Z" style="fill:#d0b22e;stroke:#fede4f;stroke-width:1px;"/></svg>