<?xml version="1.0" encoding="UTF-8" standalone="no"?>
<!DOCTYPE svg PUBLIC "-//W3C//DTD SVG 1.1//EN" "http://www.w3.org/Graphics/SVG/1.1/DTD/svg11.dtd">
<svg width="100%" height="100%" viewBox="0 0 1035 692" version="1.1" xmlns="http://www.w3.org/2000/svg" xmlns:xlink="http://www.w3.org/1999/xlink" xml:space="preserve" xmlns:serif="http://www.serif.com/" style="fill-rule:evenodd;clip-rule:evenodd;stroke-linejoin:round;stroke-miterlimit:2;">
    <g transform="matrix(1,0,0,1,-1318.492234,-358.854481)">
        <g transform="matrix(1.848881,0,0,1.848881,1186.302238,-17.984271)">
            <path d="M152.26,323.684C149.474,324.961 150.601,325.941 139.76,384.554C127.256,452.163 127.254,452.099 125.907,459.565C119.986,492.379 125.642,572.905 123.108,576.174C121.917,577.711 77.436,576.845 73.465,576.768C71.541,576.731 71.443,575.553 71.512,483.5C71.527,462.956 71.6,462.835 115.419,230.486C122.183,194.616 151.794,202.418 162.056,213.865C168.597,221.161 270.017,482.198 272.502,480.503C272.601,480.435 369.46,241.507 375.128,227.336C390.659,188.509 422.579,204.94 427.624,225.47C427.875,226.491 459.902,398.522 471.176,460.561C473.269,472.083 472.221,576.032 471.588,576.614C470.77,577.364 422.305,577.161 421.363,576.737C419.5,575.899 421.021,487.21 420.411,473.509C420.375,472.685 393.236,323.187 392.563,323.171C391.15,323.138 306.457,534.871 299.076,553.323C282.131,595.686 253.805,570.922 249.736,564.357C247.862,561.334 158.443,341.096 152.26,323.684Z" style="fill:rgb(123,141,55);"/>
            <path d="M545.5,265.034C525.442,265.034 514.22,266.181 514.208,262.507C514.026,209.921 512.68,209.681 514.48,205.489C515.181,203.857 630.021,203.914 630.616,205.448C631.765,208.409 630.871,541.296 630.793,570.5C630.765,580.79 625.901,576.963 615.5,576.965C575.229,576.973 571.808,577.804 571.801,574.495C571.179,266.055 571.58,265.437 570.639,265.15C570.063,264.974 552.556,265.036 545.5,265.034Z" style="fill:rgb(123,141,55);"/>
        </g>
    </g>
</svg>
