<?xml version="1.0" encoding="UTF-8" standalone="no"?>
<!DOCTYPE svg PUBLIC "-//W3C//DTD SVG 1.1//EN" "http://www.w3.org/Graphics/SVG/1.1/DTD/svg11.dtd">
<svg width="100%" height="100%" viewBox="0 0 1659 726" version="1.1" xmlns="http://www.w3.org/2000/svg" xmlns:xlink="http://www.w3.org/1999/xlink" xml:space="preserve" xmlns:serif="http://www.serif.com/" style="fill-rule:evenodd;clip-rule:evenodd;stroke-linecap:round;stroke-miterlimit:1.5;">
    <g transform="matrix(1,0,0,1,-411.604514,-1390.53562)">
        <g transform="matrix(1,0,0,1,-0.000001,1039.088589)">
            <g transform="matrix(1.06391,0,0,0.922392,-964.030823,76.553253)">
                <path d="M1559,818.654L1559,931.594C1559,1016.261 1499.405,1085 1426,1085C1352.595,1085 1293,1016.261 1293,931.594L1293,452.406C1293,367.739 1352.595,299 1426,299C1445.6,299 1464.215,303.901 1480.975,312.697C1433.205,291.027 1376.723,302.447 1338.135,346.955C1286.23,406.823 1286.23,504.035 1338.135,563.903L1559,818.654Z" style="fill:rgb(167,173,135);"/>
            </g>
            <g transform="matrix(0.752298,-0.752298,0.742402,0.742402,-839.840296,1238.42403)">
                <path d="M1293,927.612C1302.959,863.182 1358.034,813.827 1424.394,813.827L1559,813.827L1559,950.227C1559,1017.472 1510.294,1073.28 1446.711,1083.372L1424.394,1083.372C1388.1,1083.372 1355.181,1068.609 1331.174,1044.69C1307.569,1020.362 1293,987.005 1293,950.227L1293,927.612Z" style="fill:rgb(217,187,55);"/>
            </g>
            <g transform="matrix(1.06391,0,0,0.922392,-199.669786,76.553253)">
                <path d="M1559,452.406L1559,931.594C1559,1016.261 1499.405,1085 1426,1085C1352.595,1085 1293,1016.261 1293,931.594L1293,822.759L1520.071,560.85C1546.017,530.923 1558.993,491.665 1559,452.406Z" style="fill:rgb(121,132,74);"/>
            </g>
            <g transform="matrix(1.06391,0,0,0.922392,-199.669786,76.553253)">
                <path d="M1386.048,306.053C1398.661,301.471 1412.082,299 1426,299C1412.515,299.003 1399.03,301.354 1386.048,306.053Z" style="fill:rgb(235,235,235);"/>
            </g>
            <g transform="matrix(0.752298,0.752298,-0.738201,0.738201,565.494371,-899.733772)">
                <path d="M1559,761.799L1331.955,530.418C1289.891,487.552 1281.916,423.016 1308.028,371.933C1314.327,359.642 1322.421,348.456 1331.955,338.736C1333.314,337.352 1334.695,336.003 1336.096,334.691C1340.588,330.488 1345.364,326.595 1350.39,323.047C1395.724,291.07 1456.276,291.07 1501.61,323.047C1506.636,326.595 1511.412,330.488 1515.904,334.691C1517.305,336.003 1518.686,337.352 1520.045,338.736C1544.109,363.269 1559,397.146 1559,434.54L1559,761.799Z" style="fill:rgb(208,178,46);"/>
            </g>
            <g transform="matrix(1,0,0,1,218.808073,0)">
                <path d="M619.515,970.991C619.643,971.119 475.796,831.673 475.796,831.673L475.796,493.848C475.796,436.605 441.731,387.255 392.785,364.982C410.324,371.88 426.759,382.413 440.928,396.582L718.37,674.024L618.515,773.88C563.293,829.102 564.293,915.769 619.515,970.991Z" style="fill:rgb(152,159,115);"/>
            </g>
            <g transform="matrix(0.752298,0.752298,-0.738201,0.738201,565.494371,-899.733772)">
                <path d="M1236.556,1085.271L924.206,1085.271C850.802,1085.271 791.206,1024.538 791.206,949.731C791.206,894.118 824.144,846.282 871.207,825.397C918.542,807.33 973.982,817.683 1012.028,856.455L1236.556,1085.271Z" style="fill:rgb(124,135,77);"/>
            </g>
            <g transform="matrix(0.752298,0.752298,-0.738201,0.738201,565.494371,-899.733772)">
                <path d="M1350.39,323.047C1371.865,307.886 1397.922,299 1426,299C1454.078,299 1480.135,307.886 1501.61,323.047C1456.276,291.07 1395.724,291.07 1350.39,323.047Z" style="fill:rgb(235,235,235);"/>
            </g>
            <g transform="matrix(0.752298,0.752298,-0.738201,0.738201,565.494371,-899.733772)">
                <path d="M1293,814.191L1293,434.54C1293,411.961 1298.429,390.664 1308.028,371.933C1281.916,423.016 1289.891,487.552 1331.955,530.418L1559,761.799L1556.341,922.894C1542.605,862.956 1492.453,814.191 1429.478,814.191L1293,814.191Z" style="fill:rgb(254,222,79);"/>
            </g>
        </g>
        <g transform="matrix(1,0,0,1,116.057926,0.000001)">
            <path d="M1340.621,1507.419L1646.473,1507.419" style="fill:none;"/>
        </g>
        <g transform="matrix(1.06391,0,0,0.922392,-199.669788,1115.641842)">
            <path d="M1559,452.406L1559,931.594C1559,1016.261 1499.405,1085 1426,1085C1352.595,1085 1293,1016.261 1293,931.594L1293,822.759L1520.071,560.85C1546.017,530.923 1558.993,491.665 1559,452.406Z" style="fill:rgb(121,132,74);"/>
        </g>
        <g transform="matrix(0.752298,0.752298,-0.738201,0.738201,565.49437,139.354817)">
            <path d="M1559,761.799L1331.955,530.418C1289.891,487.552 1281.916,423.016 1308.028,371.933C1314.327,359.642 1322.421,348.456 1331.955,338.736C1333.314,337.352 1334.695,336.003 1336.096,334.691C1340.588,330.488 1345.364,326.595 1350.39,323.047C1395.724,291.07 1456.276,291.07 1501.61,323.047C1506.636,326.595 1511.412,330.488 1515.904,334.691C1517.305,336.003 1518.686,337.352 1520.045,338.736C1544.109,363.269 1559,397.146 1559,434.54L1559,761.799Z" style="fill:rgb(208,178,46);"/>
        </g>
        <g transform="matrix(0.752298,0.752298,-0.738201,0.738201,565.49437,139.354817)">
            <path d="M1350.39,323.047C1371.865,307.886 1397.922,299 1426,299C1454.078,299 1480.135,307.886 1501.61,323.047C1456.276,291.07 1395.724,291.07 1350.39,323.047Z" style="fill:rgb(235,235,235);"/>
        </g>
        <g transform="matrix(0.752298,0.752298,-0.738201,0.738201,967.744222,139.354817)">
            <path d="M1350.39,323.047C1371.865,307.886 1397.922,299 1426,299C1454.078,299 1480.135,307.886 1501.61,323.047C1456.276,291.07 1395.724,291.07 1350.39,323.047Z" style="fill:rgb(235,235,235);"/>
        </g>
        <g transform="matrix(1.06391,0,0,0.922392,409.486444,1115.641841)">
            <path d="M1559,488.429L1559,931.594C1559,1016.261 1499.405,1085 1426,1085C1352.595,1085 1293,1016.261 1293,931.594L1293,817.391C1293.348,817.002 1293.695,816.609 1294.038,816.212L1534.77,538.547C1535.883,537.262 1536.962,535.951 1538.006,534.613C1541.352,530.329 1544.393,525.712 1547.1,520.793C1552.567,510.861 1556.521,499.951 1559,488.429Z" style="fill:rgb(121,132,74);"/>
        </g>
        <g transform="matrix(1.06391,0,0,0.922392,409.486444,1115.641841)">
            <path d="M1521.946,346.213C1529.259,354.999 1535.674,364.787 1541.021,375.379C1538.532,370.665 1535.827,366.027 1532.906,361.49C1529.493,356.187 1525.83,351.085 1521.946,346.213Z" style="fill:rgb(121,132,74);"/>
        </g>
        <g transform="matrix(0.729818,0.729818,-0.529922,0.529922,1141.414422,237.749483)">
            <path d="M1558.988,933.645C1558.035,1017.368 1498.811,1085 1426,1085C1352.595,1085 1293,1016.261 1293,931.594L1293,452.406C1293,383.792 1332.139,325.639 1386.048,306.053C1399.03,301.354 1412.515,299.003 1426,299C1427.922,299 1429.834,299.047 1431.736,299.14C1432.133,299.16 1432.531,299.182 1432.929,299.205C1405.743,298.416 1378.415,309.437 1355.136,332.289C1350.144,337.189 1345.403,342.567 1340.944,348.372C1339.552,350.184 1338.181,352.047 1336.832,353.959C1327.366,367.382 1319.33,382.834 1313.077,399.809C1287.15,470.364 1295.069,559.497 1336.832,618.703L1558.988,933.645Z" style="fill:rgb(254,222,79);stroke:rgb(254,222,79);stroke-width:1.11px;"/>
        </g>
        <g transform="matrix(0.757709,0.757709,-0.534479,0.534479,1102.87613,189.32392)">
            <path d="M1464.073,305.389C1486.134,312.988 1539.302,370.441 1545.506,385.044L1523.579,353.959C1522.23,352.047 1520.859,350.184 1519.467,348.372C1515.008,342.567 1510.267,337.189 1505.276,332.289C1492.527,319.775 1478.562,310.811 1464.073,305.389Z" style="fill:rgb(254,222,79);stroke:rgb(254,222,79);stroke-width:1.08px;"/>
        </g>
        <g transform="matrix(0.757709,0.757709,-0.534479,0.534479,1102.87613,189.32392)">
            <path d="M1432.929,299.205C1405.743,298.416 1378.415,309.437 1355.136,332.289C1350.144,337.189 1345.403,342.567 1340.944,348.372C1339.552,350.184 1338.181,352.047 1336.832,353.959C1327.366,367.382 1319.33,382.834 1313.077,399.809C1287.15,470.364 1295.069,559.497 1336.832,618.703L1558.988,933.645C1558.996,932.963 1559,932.279 1559,931.594L1559,452.406C1559,450.189 1558.959,447.984 1558.878,445.79C1558.619,438.763 1557.944,431.753 1556.85,424.813C1554.643,410.802 1550.779,397.453 1545.506,385.044L1523.579,353.959C1522.23,352.047 1520.859,350.184 1519.467,348.372C1515.008,342.567 1510.267,337.189 1505.276,332.289C1492.527,319.775 1478.562,310.811 1464.073,305.389C1459.456,303.798 1454.734,302.488 1449.922,301.479C1444.298,300.301 1438.621,299.544 1432.929,299.205Z" style="fill:rgb(208,178,46);stroke:rgb(254,222,79);stroke-width:1.08px;"/>
        </g>
    </g>
</svg>
